<?xml version="1.0" encoding="UTF-8"?>
<!--Generator: Apple Native CoreSVG 123-->
<!DOCTYPE svg
PUBLIC "-//W3C//DTD SVG 1.1//EN"
       "http://www.w3.org/Graphics/SVG/1.1/DTD/svg11.dtd">
<svg version="1.1" xmlns="http://www.w3.org/2000/svg" xmlns:xlink="http://www.w3.org/1999/xlink" width="3300" height="2200">
 <!--glyph: "uni100415.medium", point size: 100.000000, font version: "Version 15.0d7e11", template writer version: "5"-->
 <g id="Notes">
  <rect height="2200" id="artboard" style="fill:white;opacity:1" width="3300" x="0" y="0"/>
  <line id="" style="fill:none;stroke:black;opacity:1;stroke-width:0.5;" x1="263" x2="3036" y1="292" y2="292"/>
  <text style="stroke:none;fill:black;font-family:-apple-system,&quot;SF Pro Display&quot;,&quot;SF Pro Text&quot;,Helvetica,sans-serif;font-weight:bold;" transform="matrix(1 0 0 1 263 322)">Weight/Scale Variations</text>
  <text style="stroke:none;fill:black;font-family:-apple-system,&quot;SF Pro Display&quot;,&quot;SF Pro Text&quot;,Helvetica,sans-serif;text-anchor:middle;" transform="matrix(1 0 0 1 559.711 322)">Ultralight</text>
  <text style="stroke:none;fill:black;font-family:-apple-system,&quot;SF Pro Display&quot;,&quot;SF Pro Text&quot;,Helvetica,sans-serif;text-anchor:middle;" transform="matrix(1 0 0 1 856.422 322)">Thin</text>
  <text style="stroke:none;fill:black;font-family:-apple-system,&quot;SF Pro Display&quot;,&quot;SF Pro Text&quot;,Helvetica,sans-serif;text-anchor:middle;" transform="matrix(1 0 0 1 1153.13 322)">Light</text>
  <text style="stroke:none;fill:black;font-family:-apple-system,&quot;SF Pro Display&quot;,&quot;SF Pro Text&quot;,Helvetica,sans-serif;text-anchor:middle;" transform="matrix(1 0 0 1 1449.84 322)">Regular</text>
  <text style="stroke:none;fill:black;font-family:-apple-system,&quot;SF Pro Display&quot;,&quot;SF Pro Text&quot;,Helvetica,sans-serif;text-anchor:middle;" transform="matrix(1 0 0 1 1746.56 322)">Medium</text>
  <text style="stroke:none;fill:black;font-family:-apple-system,&quot;SF Pro Display&quot;,&quot;SF Pro Text&quot;,Helvetica,sans-serif;text-anchor:middle;" transform="matrix(1 0 0 1 2043.27 322)">Semibold</text>
  <text style="stroke:none;fill:black;font-family:-apple-system,&quot;SF Pro Display&quot;,&quot;SF Pro Text&quot;,Helvetica,sans-serif;text-anchor:middle;" transform="matrix(1 0 0 1 2339.98 322)">Bold</text>
  <text style="stroke:none;fill:black;font-family:-apple-system,&quot;SF Pro Display&quot;,&quot;SF Pro Text&quot;,Helvetica,sans-serif;text-anchor:middle;" transform="matrix(1 0 0 1 2636.69 322)">Heavy</text>
  <text style="stroke:none;fill:black;font-family:-apple-system,&quot;SF Pro Display&quot;,&quot;SF Pro Text&quot;,Helvetica,sans-serif;text-anchor:middle;" transform="matrix(1 0 0 1 2933.4 322)">Black</text>
  <line id="" style="fill:none;stroke:black;opacity:1;stroke-width:0.5;" x1="263" x2="3036" y1="1903" y2="1903"/>
  <g id="" transform="matrix(1 0 0 1 263 1933)">
   <path d="M 9.24805 0.830078 C 13.5547 0.830078 17.1387 -2.74414 17.1387 -7.05078 C 17.1387 -11.3574 13.5449 -14.9316 9.23828 -14.9316 C 4.94141 -14.9316 1.36719 -11.3574 1.36719 -7.05078 C 1.36719 -2.74414 4.95117 0.830078 9.24805 0.830078 Z M 9.24805 -0.654297 C 5.70312 -0.654297 2.87109 -3.49609 2.87109 -7.05078 C 2.87109 -10.6055 5.69336 -13.4473 9.23828 -13.4473 C 12.793 -13.4473 15.6348 -10.6055 15.6445 -7.05078 C 15.6543 -3.49609 12.8027 -0.654297 9.24805 -0.654297 Z M 9.22852 -3.42773 C 9.69727 -3.42773 9.9707 -3.74023 9.9707 -4.25781 L 9.9707 -6.31836 L 12.1973 -6.31836 C 12.6953 -6.31836 13.0371 -6.57227 13.0371 -7.04102 C 13.0371 -7.51953 12.7148 -7.7832 12.1973 -7.7832 L 9.9707 -7.7832 L 9.9707 -10.0098 C 9.9707 -10.5273 9.69727 -10.8496 9.22852 -10.8496 C 8.75977 -10.8496 8.50586 -10.5078 8.50586 -10.0098 L 8.50586 -7.7832 L 6.29883 -7.7832 C 5.78125 -7.7832 5.44922 -7.51953 5.44922 -7.04102 C 5.44922 -6.57227 5.80078 -6.31836 6.29883 -6.31836 L 8.50586 -6.31836 L 8.50586 -4.25781 C 8.50586 -3.75977 8.75977 -3.42773 9.22852 -3.42773 Z"/>
  </g>
  <g id="" transform="matrix(1 0 0 1 281.506 1933)">
   <path d="M 11.709 2.91016 C 17.1582 2.91016 21.6699 -1.60156 21.6699 -7.05078 C 21.6699 -12.4902 17.1484 -17.0117 11.6992 -17.0117 C 6.25977 -17.0117 1.74805 -12.4902 1.74805 -7.05078 C 1.74805 -1.60156 6.26953 2.91016 11.709 2.91016 Z M 11.709 1.25 C 7.09961 1.25 3.41797 -2.44141 3.41797 -7.05078 C 3.41797 -11.6504 7.08984 -15.3516 11.6992 -15.3516 C 16.3086 -15.3516 20 -11.6504 20.0098 -7.05078 C 20.0195 -2.44141 16.3184 1.25 11.709 1.25 Z M 11.6895 -2.41211 C 12.207 -2.41211 12.5195 -2.77344 12.5195 -3.33984 L 12.5195 -6.23047 L 15.5762 -6.23047 C 16.123 -6.23047 16.5039 -6.51367 16.5039 -7.03125 C 16.5039 -7.55859 16.1426 -7.86133 15.5762 -7.86133 L 12.5195 -7.86133 L 12.5195 -10.9277 C 12.5195 -11.5039 12.207 -11.8555 11.6895 -11.8555 C 11.1719 -11.8555 10.8789 -11.4844 10.8789 -10.9277 L 10.8789 -7.86133 L 7.83203 -7.86133 C 7.26562 -7.86133 6.89453 -7.55859 6.89453 -7.03125 C 6.89453 -6.51367 7.28516 -6.23047 7.83203 -6.23047 L 10.8789 -6.23047 L 10.8789 -3.33984 C 10.8789 -2.79297 11.1719 -2.41211 11.6895 -2.41211 Z"/>
  </g>
  <g id="" transform="matrix(1 0 0 1 304.924 1933)">
   <path d="M 14.9707 5.67383 C 21.9336 5.67383 27.6953 -0.078125 27.6953 -7.04102 C 27.6953 -14.0039 21.9238 -19.7559 14.9609 -19.7559 C 8.00781 -19.7559 2.25586 -14.0039 2.25586 -7.04102 C 2.25586 -0.078125 8.01758 5.67383 14.9707 5.67383 Z M 14.9707 3.85742 C 8.93555 3.85742 4.08203 -1.00586 4.08203 -7.04102 C 4.08203 -13.0762 8.92578 -17.9395 14.9609 -17.9395 C 21.0059 -17.9395 25.8594 -13.0762 25.8691 -7.04102 C 25.8789 -1.00586 21.0156 3.85742 14.9707 3.85742 Z M 14.9512 -1.06445 C 15.5176 -1.06445 15.8691 -1.45508 15.8691 -2.06055 L 15.8691 -6.13281 L 20.1074 -6.13281 C 20.6934 -6.13281 21.1133 -6.46484 21.1133 -7.02148 C 21.1133 -7.59766 20.7227 -7.93945 20.1074 -7.93945 L 15.8691 -7.93945 L 15.8691 -12.1875 C 15.8691 -12.8027 15.5176 -13.1934 14.9512 -13.1934 C 14.3848 -13.1934 14.0625 -12.7832 14.0625 -12.1875 L 14.0625 -7.93945 L 9.83398 -7.93945 C 9.21875 -7.93945 8.80859 -7.59766 8.80859 -7.02148 C 8.80859 -6.46484 9.23828 -6.13281 9.83398 -6.13281 L 14.0625 -6.13281 L 14.0625 -2.06055 C 14.0625 -1.47461 14.3848 -1.06445 14.9512 -1.06445 Z"/>
  </g>
  <text style="stroke:none;fill:black;font-family:-apple-system,&quot;SF Pro Display&quot;,&quot;SF Pro Text&quot;,Helvetica,sans-serif;font-weight:bold;" transform="matrix(1 0 0 1 263 1953)">Design Variations</text>
  <text style="stroke:none;fill:black;font-family:-apple-system,&quot;SF Pro Display&quot;,&quot;SF Pro Text&quot;,Helvetica,sans-serif;" transform="matrix(1 0 0 1 263 1971)">Symbols are supported in up to nine weights and three scales.</text>
  <text style="stroke:none;fill:black;font-family:-apple-system,&quot;SF Pro Display&quot;,&quot;SF Pro Text&quot;,Helvetica,sans-serif;" transform="matrix(1 0 0 1 263 1989)">For optimal layout with text and other symbols, vertically align</text>
  <text style="stroke:none;fill:black;font-family:-apple-system,&quot;SF Pro Display&quot;,&quot;SF Pro Text&quot;,Helvetica,sans-serif;" transform="matrix(1 0 0 1 263 2007)">symbols with the adjacent text.</text>
  <rect height="14" id="" style="fill:#00AEEF;stroke:none;opacity:0.4;" width="3" x="776" y="1919"/>
  <g id="" transform="matrix(1 0 0 1 779 1933)">
   <path d="M 10.5273 0 L 12.373 0 L 7.17773 -14.0918 L 5.43945 -14.0918 L 0.244141 0 L 2.08984 0 L 3.50586 -4.0332 L 9.11133 -4.0332 Z M 6.2793 -11.9531 L 6.33789 -11.9531 L 8.59375 -5.52734 L 4.02344 -5.52734 Z"/>
  </g>
  <rect height="14" id="" style="fill:#00AEEF;stroke:none;opacity:0.4;" width="3" x="791.617" y="1919"/>
  <text style="stroke:none;fill:black;font-family:-apple-system,&quot;SF Pro Display&quot;,&quot;SF Pro Text&quot;,Helvetica,sans-serif;font-weight:bold;" transform="matrix(1 0 0 1 776 1953)">Margins</text>
  <text style="stroke:none;fill:black;font-family:-apple-system,&quot;SF Pro Display&quot;,&quot;SF Pro Text&quot;,Helvetica,sans-serif;" transform="matrix(1 0 0 1 776 1971)">Leading and trailing margins on the left and right side of each symbol</text>
  <text style="stroke:none;fill:black;font-family:-apple-system,&quot;SF Pro Display&quot;,&quot;SF Pro Text&quot;,Helvetica,sans-serif;" transform="matrix(1 0 0 1 776 1989)">can be adjusted by modifying the width of the blue rectangles.</text>
  <text style="stroke:none;fill:black;font-family:-apple-system,&quot;SF Pro Display&quot;,&quot;SF Pro Text&quot;,Helvetica,sans-serif;" transform="matrix(1 0 0 1 776 2007)">Modifications are automatically applied proportionally to all</text>
  <text style="stroke:none;fill:black;font-family:-apple-system,&quot;SF Pro Display&quot;,&quot;SF Pro Text&quot;,Helvetica,sans-serif;" transform="matrix(1 0 0 1 776 2025)">scales and weights.</text>
  <g id="" transform="matrix(1 0 0 1 1289 1933)">
   <path d="M 2.83203 3.11523 L 4.375 4.6582 C 5.22461 5.48828 6.19141 5.41992 7.06055 4.46289 L 17.2754 -6.66016 C 17.7051 -6.36719 18.0957 -6.37695 18.5645 -6.47461 L 19.6094 -6.68945 L 20.3027 -5.99609 L 20.2539 -5.47852 C 20.1855 -4.95117 20.3516 -4.53125 20.8496 -4.0332 L 21.6602 -3.22266 C 22.168 -2.71484 22.8223 -2.68555 23.3008 -3.16406 L 26.5527 -6.41602 C 27.0312 -6.89453 27.0117 -7.54883 26.5039 -8.05664 L 25.6836 -8.87695 C 25.1855 -9.375 24.7754 -9.55078 24.2383 -9.47266 L 23.7109 -9.41406 L 23.0566 -10.0781 L 23.3398 -11.2207 C 23.4863 -11.7871 23.3398 -12.2559 22.7148 -12.8613 L 20.3027 -15.2539 C 16.7578 -18.7793 12.2266 -18.6719 9.11133 -15.5371 C 8.69141 -15.1074 8.64258 -14.5215 8.91602 -14.0918 C 9.15039 -13.7207 9.62891 -13.4961 10.2734 -13.6621 C 11.7871 -14.043 13.3008 -13.9258 14.7852 -12.9199 L 14.1602 -11.3379 C 13.9258 -10.752 13.9453 -10.2734 14.1797 -9.83398 L 3.01758 0.439453 C 2.08008 1.30859 1.97266 2.25586 2.83203 3.11523 Z M 10.6738 -15.1465 C 13.3398 -17.1387 16.6504 -16.8262 19.0527 -14.4141 L 21.6797 -11.8066 C 21.9141 -11.5723 21.9434 -11.3867 21.8848 -11.0938 L 21.5039 -9.53125 L 23.0762 -7.95898 L 24.043 -8.04688 C 24.3262 -8.07617 24.4141 -8.05664 24.6387 -7.83203 L 25.2637 -7.20703 L 22.5098 -4.46289 L 21.8848 -5.07812 C 21.6602 -5.30273 21.6406 -5.40039 21.6699 -5.68359 L 21.7578 -6.64062 L 20.1953 -8.20312 L 18.5742 -7.89062 C 18.291 -7.83203 18.1445 -7.83203 17.9102 -8.07617 L 15.7324 -10.2539 C 15.5078 -10.4883 15.4785 -10.625 15.6055 -10.9473 L 16.5527 -13.2227 C 14.9512 -14.7559 12.8418 -15.6055 10.8008 -14.9512 C 10.7129 -14.9219 10.6445 -14.9414 10.6152 -14.9805 C 10.5859 -15.0293 10.5859 -15.0781 10.6738 -15.1465 Z M 4.10156 2.41211 C 3.61328 1.91406 3.78906 1.61133 4.12109 1.30859 L 15.0781 -8.80859 L 16.3086 -7.57812 L 6.15234 3.34961 C 5.84961 3.68164 5.46875 3.7793 5.06836 3.37891 Z"/>
  </g>
  <text style="stroke:none;fill:black;font-family:-apple-system,&quot;SF Pro Display&quot;,&quot;SF Pro Text&quot;,Helvetica,sans-serif;font-weight:bold;" transform="matrix(1 0 0 1 1289 1953)">Exporting</text>
  <text style="stroke:none;fill:black;font-family:-apple-system,&quot;SF Pro Display&quot;,&quot;SF Pro Text&quot;,Helvetica,sans-serif;" transform="matrix(1 0 0 1 1289 1971)">Symbols should be outlined when exporting to ensure the</text>
  <text style="stroke:none;fill:black;font-family:-apple-system,&quot;SF Pro Display&quot;,&quot;SF Pro Text&quot;,Helvetica,sans-serif;" transform="matrix(1 0 0 1 1289 1989)">design is preserved when submitting to Xcode.</text>
  <text id="template-version" style="stroke:none;fill:black;font-family:-apple-system,&quot;SF Pro Display&quot;,&quot;SF Pro Text&quot;,Helvetica,sans-serif;text-anchor:end;" transform="matrix(1 0 0 1 3036 1933)">Template v.1.0</text>
  <text style="stroke:none;fill:black;font-family:-apple-system,&quot;SF Pro Display&quot;,&quot;SF Pro Text&quot;,Helvetica,sans-serif;text-anchor:end;" transform="matrix(1 0 0 1 3036 1951)">Generated from flowchart</text>
  <text style="stroke:none;fill:black;font-family:-apple-system,&quot;SF Pro Display&quot;,&quot;SF Pro Text&quot;,Helvetica,sans-serif;text-anchor:end;" transform="matrix(1 0 0 1 3036 1969)">Typeset at 100 points</text>
  <text style="stroke:none;fill:black;font-family:-apple-system,&quot;SF Pro Display&quot;,&quot;SF Pro Text&quot;,Helvetica,sans-serif;" transform="matrix(1 0 0 1 263 726)">Small</text>
  <text style="stroke:none;fill:black;font-family:-apple-system,&quot;SF Pro Display&quot;,&quot;SF Pro Text&quot;,Helvetica,sans-serif;" transform="matrix(1 0 0 1 263 1156)">Medium</text>
  <text style="stroke:none;fill:black;font-family:-apple-system,&quot;SF Pro Display&quot;,&quot;SF Pro Text&quot;,Helvetica,sans-serif;" transform="matrix(1 0 0 1 263 1586)">Large</text>
 </g>
 <g id="Guides">
  <g id="H-reference" style="fill:#27AAE1;stroke:none;" transform="matrix(1 0 0 1 339 696)">
   <path d="M 54.9316 0 L 57.666 0 L 30.5664 -70.459 L 28.0762 -70.459 L 0.976562 0 L 3.66211 0 L 12.9395 -24.4629 L 45.7031 -24.4629 Z M 29.1992 -67.0898 L 29.4434 -67.0898 L 44.8242 -26.709 L 13.8184 -26.709 Z"/>
  </g>
  <line id="Baseline-S" style="fill:none;stroke:#27AAE1;opacity:1;stroke-width:0.577;" x1="263" x2="3036" y1="696" y2="696"/>
  <line id="Capline-S" style="fill:none;stroke:#27AAE1;opacity:1;stroke-width:0.577;" x1="263" x2="3036" y1="625.541" y2="625.541"/>
  <g id="H-reference" style="fill:#27AAE1;stroke:none;" transform="matrix(1 0 0 1 339 1126)">
   <path d="M 54.9316 0 L 57.666 0 L 30.5664 -70.459 L 28.0762 -70.459 L 0.976562 0 L 3.66211 0 L 12.9395 -24.4629 L 45.7031 -24.4629 Z M 29.1992 -67.0898 L 29.4434 -67.0898 L 44.8242 -26.709 L 13.8184 -26.709 Z"/>
  </g>
  <line id="Baseline-M" style="fill:none;stroke:#27AAE1;opacity:1;stroke-width:0.577;" x1="263" x2="3036" y1="1126" y2="1126"/>
  <line id="Capline-M" style="fill:none;stroke:#27AAE1;opacity:1;stroke-width:0.577;" x1="263" x2="3036" y1="1055.54" y2="1055.54"/>
  <g id="H-reference" style="fill:#27AAE1;stroke:none;" transform="matrix(1 0 0 1 339 1556)">
   <path d="M 54.9316 0 L 57.666 0 L 30.5664 -70.459 L 28.0762 -70.459 L 0.976562 0 L 3.66211 0 L 12.9395 -24.4629 L 45.7031 -24.4629 Z M 29.1992 -67.0898 L 29.4434 -67.0898 L 44.8242 -26.709 L 13.8184 -26.709 Z"/>
  </g>
  <line id="Baseline-L" style="fill:none;stroke:#27AAE1;opacity:1;stroke-width:0.577;" x1="263" x2="3036" y1="1556" y2="1556"/>
  <line id="Capline-L" style="fill:none;stroke:#27AAE1;opacity:1;stroke-width:0.577;" x1="263" x2="3036" y1="1485.54" y2="1485.54"/>
  <rect height="119.336" id="left-margin" style="fill:#00AEEF;stroke:none;opacity:0.4;" width="12.4512" x="1384.9" y="1030.79"/>
  <rect height="119.336" id="right-margin" style="fill:#00AEEF;stroke:none;opacity:0.4;" width="12.4512" x="1502.33" y="1030.79"/>
 </g>
 <g id="Symbols">
  <g id="Black-L" transform="matrix(1 0 0 1 2839.87 1556)">
   <path d="M 35.791 11.2793 L 85.0586 11.2793 L 85.0586 19.8242 L 75.7324 19.8242 C 68.9453 19.8242 66.8945 25.3906 71.0938 30.2734 L 89.2578 51.709 C 91.6504 54.541 95.6055 54.4922 97.998 51.709 L 116.064 30.2734 C 120.068 25.4883 118.115 19.8242 111.621 19.8242 L 102.002 19.8242 L 102.002 11.2793 L 151.221 11.2793 C 164.697 11.2793 170.996 5.0293 170.996 -8.44727 L 170.996 -25.2441 C 170.996 -38.6719 164.697 -44.9219 151.221 -44.9219 L 102.002 -44.9219 L 102.002 -52.3926 L 151.221 -52.3926 C 164.697 -52.3926 170.996 -58.6426 170.996 -72.1191 L 170.996 -88.916 C 170.996 -102.344 164.697 -108.594 151.221 -108.594 L 35.791 -108.594 C 22.3145 -108.594 16.0645 -102.344 16.0645 -88.916 L 16.0645 -72.1191 C 16.0645 -58.6426 22.3145 -52.3926 35.791 -52.3926 L 85.0586 -52.3926 L 85.0586 -44.9219 L 35.791 -44.9219 C 22.3145 -44.9219 16.0645 -38.6719 16.0645 -25.2441 L 16.0645 -8.44727 C 16.0645 5.0293 22.3145 11.2793 35.791 11.2793 Z M 35.9375 -68.3105 C 33.3008 -68.3105 31.9824 -69.5801 31.9824 -72.3145 L 31.9824 -88.6719 C 31.9824 -91.4062 33.3008 -92.6758 35.9375 -92.6758 L 151.074 -92.6758 C 153.76 -92.6758 155.029 -91.4062 155.029 -88.6719 L 155.029 -72.3145 C 155.029 -69.5801 153.76 -68.3105 151.074 -68.3105 Z M 35.9375 -4.63867 C 33.3008 -4.63867 31.9824 -5.9082 31.9824 -8.64258 L 31.9824 -25 C 31.9824 -27.7344 33.3008 -29.0039 35.9375 -29.0039 L 151.074 -29.0039 C 153.76 -29.0039 155.029 -27.7344 155.029 -25 L 155.029 -8.64258 C 155.029 -5.9082 153.76 -4.63867 151.074 -4.63867 Z"/>
  </g>
  <g id="Heavy-L" transform="matrix(1 0 0 1 2545.6 1556)">
   <path d="M 34.2773 9.96094 L 83.6426 9.96094 L 83.6426 18.8965 L 74.1699 18.8965 C 68.0664 18.8965 66.1133 24.1211 69.9219 28.5645 L 87.0605 49.0234 C 89.3066 51.709 93.0664 51.6602 95.2637 49.0234 L 112.354 28.5645 C 115.967 24.1699 114.111 18.8965 108.252 18.8965 L 98.5352 18.8965 L 98.5352 9.96094 L 147.9 9.96094 C 160.254 9.96094 166.113 4.19922 166.113 -8.1543 L 166.113 -26.6113 C 166.113 -38.9648 160.254 -44.7266 147.9 -44.7266 L 98.5352 -44.7266 L 98.5352 -53.0273 L 147.9 -53.0273 C 160.254 -53.0273 166.113 -58.7402 166.113 -71.1426 L 166.113 -89.5996 C 166.113 -101.953 160.254 -107.715 147.9 -107.715 L 34.2773 -107.715 C 21.875 -107.715 16.0645 -101.953 16.0645 -89.5996 L 16.0645 -71.1426 C 16.0645 -58.7402 21.875 -53.0273 34.2773 -53.0273 L 83.6914 -53.0273 L 83.6914 -44.7266 L 34.2773 -44.7266 C 21.875 -44.7266 16.0645 -38.9648 16.0645 -26.6113 L 16.0645 -8.1543 C 16.0645 4.19922 21.875 9.96094 34.2773 9.96094 Z M 34.4727 -67.0898 C 31.5918 -67.0898 30.1758 -68.5059 30.1758 -71.4844 L 30.1758 -89.209 C 30.1758 -92.2363 31.5918 -93.6035 34.4727 -93.6035 L 147.656 -93.6035 C 150.586 -93.6035 152.002 -92.2363 152.002 -89.209 L 152.002 -71.4844 C 152.002 -68.5059 150.586 -67.0898 147.656 -67.0898 Z M 34.4727 -4.15039 C 31.5918 -4.15039 30.1758 -5.56641 30.1758 -8.54492 L 30.1758 -26.2695 C 30.1758 -29.248 31.5918 -30.6152 34.4727 -30.6152 L 147.656 -30.6152 C 150.586 -30.6152 152.002 -29.248 152.002 -26.2695 L 152.002 -8.54492 C 152.002 -5.56641 150.586 -4.15039 147.656 -4.15039 Z"/>
  </g>
  <g id="Bold-L" transform="matrix(1 0 0 1 2251.62 1556)">
   <path d="M 32.5195 8.49609 L 82.1289 8.49609 L 82.1289 17.8223 L 72.4609 17.8223 C 67.0898 17.8223 65.2832 22.6562 68.6035 26.6602 L 84.668 46.0449 C 86.7188 48.584 90.1855 48.5352 92.2852 46.0449 L 108.203 26.6602 C 111.426 22.7051 109.668 17.8223 104.443 17.8223 L 94.6289 17.8223 L 94.6289 8.49609 L 144.189 8.49609 C 155.273 8.49609 160.645 3.27148 160.645 -7.86133 L 160.645 -28.1738 C 160.645 -39.3066 155.273 -44.5312 144.189 -44.5312 L 94.5801 -44.5312 L 94.5801 -53.7109 L 144.189 -53.7109 C 155.273 -53.7109 160.645 -58.8867 160.645 -70.0684 L 160.645 -90.3809 C 160.645 -101.465 155.273 -106.689 144.189 -106.689 L 32.5195 -106.689 C 21.3867 -106.689 16.0645 -101.465 16.0645 -90.3809 L 16.0645 -70.0684 C 16.0645 -58.8867 21.3867 -53.7109 32.5195 -53.7109 L 82.1289 -53.7109 L 82.1289 -44.5312 L 32.5195 -44.5312 C 21.3867 -44.5312 16.0645 -39.3066 16.0645 -28.1738 L 16.0645 -7.86133 C 16.0645 3.27148 21.3867 8.49609 32.5195 8.49609 Z M 32.8613 -65.7227 C 29.6875 -65.7227 28.125 -67.2852 28.125 -70.5566 L 28.125 -89.7949 C 28.125 -93.1152 29.6875 -94.6289 32.8613 -94.6289 L 143.799 -94.6289 C 147.021 -94.6289 148.584 -93.1152 148.584 -89.7949 L 148.584 -70.5566 C 148.584 -67.2852 147.021 -65.7227 143.799 -65.7227 Z M 32.8613 -3.56445 C 29.6875 -3.56445 28.125 -5.12695 28.125 -8.39844 L 28.125 -27.6367 C 28.125 -30.957 29.6875 -32.4707 32.8613 -32.4707 L 143.799 -32.4707 C 147.021 -32.4707 148.584 -30.957 148.584 -27.6367 L 148.584 -8.39844 C 148.584 -5.12695 147.021 -3.56445 143.799 -3.56445 Z"/>
  </g>
  <g id="Semibold-L" transform="matrix(1 0 0 1 1956.79 1556)">
   <path d="M 31.2988 7.4707 L 81.0547 7.4707 L 81.0547 17.1387 L 71.2891 17.1387 C 66.3574 17.1387 64.6484 21.6797 67.7246 25.3906 L 82.959 43.9941 C 84.9609 46.3867 88.2324 46.3867 90.1855 43.9941 L 105.322 25.3906 C 108.252 21.7285 106.592 17.1387 101.855 17.1387 L 91.8945 17.1387 L 91.8945 7.4707 L 141.65 7.4707 C 151.855 7.4707 156.885 2.63672 156.885 -7.66602 L 156.885 -29.248 C 156.885 -39.502 151.855 -44.3848 141.65 -44.3848 L 91.8945 -44.3848 L 91.8945 -54.1504 L 141.65 -54.1504 C 151.855 -54.1504 156.885 -58.9844 156.885 -69.3359 L 156.885 -90.8691 C 156.885 -101.172 151.855 -106.006 141.65 -106.006 L 31.2988 -106.006 C 21.0938 -106.006 16.0645 -101.172 16.0645 -90.8691 L 16.0645 -69.3359 C 16.0645 -58.9844 21.0938 -54.1504 31.2988 -54.1504 L 81.1035 -54.1504 L 81.1035 -44.3848 L 31.2988 -44.3848 C 21.0938 -44.3848 16.0645 -39.502 16.0645 -29.248 L 16.0645 -7.66602 C 16.0645 2.63672 21.0938 7.4707 31.2988 7.4707 Z M 31.7383 -64.7949 C 28.418 -64.7949 26.709 -66.4551 26.709 -69.9219 L 26.709 -90.2344 C 26.709 -93.75 28.418 -95.3613 31.7383 -95.3613 L 141.162 -95.3613 C 144.531 -95.3613 146.24 -93.75 146.24 -90.2344 L 146.24 -69.9219 C 146.24 -66.4551 144.531 -64.7949 141.162 -64.7949 Z M 31.7383 -3.125 C 28.418 -3.125 26.709 -4.78516 26.709 -8.30078 L 26.709 -28.5645 C 26.709 -32.1289 28.418 -33.7402 31.7383 -33.7402 L 141.162 -33.7402 C 144.531 -33.7402 146.24 -32.1289 146.24 -28.5645 L 146.24 -8.30078 C 146.24 -4.78516 144.531 -3.125 141.162 -3.125 Z"/>
  </g>
  <g id="Medium-L" transform="matrix(1 0 0 1 1661.52 1556)">
   <path d="M 30.4199 6.73828 L 80.2734 6.73828 L 80.2734 16.6016 L 70.4102 16.6016 C 65.8691 16.6016 64.209 20.8984 67.041 24.3652 L 81.6895 42.4805 C 83.5938 44.7754 86.7188 44.7266 88.5742 42.4805 L 103.125 24.3652 C 105.859 20.9473 104.297 16.6016 99.8535 16.6016 L 89.8438 16.6016 L 89.8438 6.73828 L 139.697 6.73828 C 149.268 6.73828 154.004 2.14844 154.004 -7.51953 L 154.004 -30.0293 C 154.004 -39.6973 149.268 -44.2383 139.697 -44.2383 L 89.8438 -44.2383 L 89.8438 -54.4922 L 139.697 -54.4922 C 149.268 -54.4922 154.004 -59.082 154.004 -68.75 L 154.004 -91.2598 C 154.004 -100.928 149.268 -105.469 139.697 -105.469 L 30.4199 -105.469 C 20.8008 -105.469 16.0645 -100.928 16.0645 -91.2598 L 16.0645 -68.75 C 16.0645 -59.082 20.8008 -54.4922 30.4199 -54.4922 L 80.2734 -54.4922 L 80.2734 -44.2383 L 30.4199 -44.2383 C 20.8008 -44.2383 16.0645 -39.6973 16.0645 -30.0293 L 16.0645 -7.51953 C 16.0645 2.14844 20.8008 6.73828 30.4199 6.73828 Z M 30.9082 -64.0625 C 27.3926 -64.0625 25.6348 -65.8203 25.6348 -69.4336 L 25.6348 -90.5273 C 25.6348 -94.2383 27.3926 -95.9473 30.9082 -95.9473 L 139.111 -95.9473 C 142.676 -95.9473 144.482 -94.2383 144.482 -90.5273 L 144.482 -69.4336 C 144.482 -65.8203 142.676 -64.0625 139.111 -64.0625 Z M 30.9082 -2.83203 C 27.3926 -2.83203 25.6348 -4.58984 25.6348 -8.20312 L 25.6348 -29.2969 C 25.6348 -33.0078 27.3926 -34.668 30.9082 -34.668 L 139.111 -34.668 C 142.676 -34.668 144.482 -33.0078 144.482 -29.2969 L 144.482 -8.20312 C 144.482 -4.58984 142.676 -2.83203 139.111 -2.83203 Z"/>
  </g>
  <g id="Regular-L" transform="matrix(1 0 0 1 1366.67 1556)">
   <path d="M 29.1992 5.71289 L 79.248 5.71289 L 79.248 15.8691 L 69.2383 15.8691 C 65.1855 15.8691 63.623 19.9219 66.1621 23.0957 L 80.0293 40.4297 C 81.8359 42.627 84.7656 42.5781 86.5234 40.4297 L 100.293 23.0957 C 102.734 19.9707 101.27 15.8691 97.2656 15.8691 L 87.207 15.8691 L 87.207 5.71289 L 137.158 5.71289 C 145.898 5.71289 150.293 1.51367 150.293 -7.32422 L 150.293 -31.1035 C 150.293 -39.8926 145.898 -44.0918 137.158 -44.0918 L 87.1582 -44.0918 L 87.1582 -54.9805 L 137.158 -54.9805 C 145.898 -54.9805 150.293 -59.1797 150.293 -68.0176 L 150.293 -91.7969 C 150.293 -100.586 145.898 -104.785 137.158 -104.785 L 29.1992 -104.785 C 20.5078 -104.785 16.0645 -100.586 16.0645 -91.7969 L 16.0645 -68.0176 C 16.0645 -59.1797 20.5078 -54.9805 29.1992 -54.9805 L 79.248 -54.9805 L 79.248 -44.0918 L 29.1992 -44.0918 C 20.5078 -44.0918 16.0645 -39.8926 16.0645 -31.1035 L 16.0645 -7.32422 C 16.0645 1.51367 20.5078 5.71289 29.1992 5.71289 Z M 29.834 -63.1348 C 26.123 -63.1348 24.2188 -64.9902 24.2188 -68.8477 L 24.2188 -90.9668 C 24.2188 -94.8242 26.123 -96.6309 29.834 -96.6309 L 136.523 -96.6309 C 140.283 -96.6309 142.139 -94.8242 142.139 -90.9668 L 142.139 -68.8477 C 142.139 -64.9902 140.283 -63.1348 136.523 -63.1348 Z M 29.834 -2.44141 C 26.123 -2.44141 24.2188 -4.29688 24.2188 -8.10547 L 24.2188 -30.2734 C 24.2188 -34.1309 26.123 -35.9375 29.834 -35.9375 L 136.523 -35.9375 C 140.283 -35.9375 142.139 -34.1309 142.139 -30.2734 L 142.139 -8.10547 C 142.139 -4.29688 140.283 -2.44141 136.523 -2.44141 Z"/>
  </g>
  <g id="Light-L" transform="matrix(1 0 0 1 1070.78 1556)">
   <path d="M 27.3438 5.37109 L 79.248 5.37109 L 79.248 16.3574 L 69.1406 16.3574 C 65.7227 16.3574 64.4531 19.7754 66.5527 22.5098 L 79.4922 39.1602 C 81.0547 41.1621 83.7891 41.1133 85.3516 39.1602 L 98.1934 22.5098 C 100.244 19.8242 99.0234 16.3574 95.7031 16.3574 L 85.498 16.3574 L 85.498 5.37109 L 137.354 5.37109 C 144.775 5.37109 148.633 1.85547 148.633 -5.85938 L 148.633 -31.8848 C 148.633 -39.5508 144.775 -43.0664 137.354 -43.0664 L 85.4492 -43.0664 L 85.4492 -55.127 L 137.354 -55.127 C 144.775 -55.127 148.633 -58.6426 148.633 -66.3574 L 148.633 -92.3828 C 148.633 -100.049 144.775 -103.564 137.354 -103.564 L 27.3438 -103.564 C 19.9219 -103.564 16.0645 -100.049 16.0645 -92.3828 L 16.0645 -66.3574 C 16.0645 -58.6426 19.9219 -55.127 27.3438 -55.127 L 79.2969 -55.127 L 79.2969 -43.0664 L 27.3438 -43.0664 C 19.9219 -43.0664 16.0645 -39.5508 16.0645 -31.8848 L 16.0645 -5.85938 C 16.0645 1.85547 19.9219 5.37109 27.3438 5.37109 Z M 27.7832 -61.4258 C 24.1211 -61.4258 22.3633 -63.1348 22.3633 -66.9434 L 22.3633 -91.7969 C 22.3633 -95.6055 24.1211 -97.2656 27.7832 -97.2656 L 136.865 -97.2656 C 140.625 -97.2656 142.334 -95.6055 142.334 -91.7969 L 142.334 -66.9434 C 142.334 -63.1348 140.625 -61.4258 136.865 -61.4258 Z M 27.7832 -0.927734 C 24.1211 -0.927734 22.3633 -2.63672 22.3633 -6.44531 L 22.3633 -31.2988 C 22.3633 -35.1074 24.1211 -36.7676 27.7832 -36.7676 L 136.865 -36.7676 C 140.625 -36.7676 142.334 -35.1074 142.334 -31.2988 L 142.334 -6.44531 C 142.334 -2.63672 140.625 -0.927734 136.865 -0.927734 Z"/>
  </g>
  <g id="Thin-L" transform="matrix(1 0 0 1 775.172 1556)">
   <path d="M 24.9023 4.88281 L 79.248 4.88281 L 79.248 16.9922 L 68.9453 16.9922 C 66.4551 16.9922 65.5762 19.6289 67.0898 21.7285 L 78.7598 37.4512 C 80.0781 39.209 82.5195 39.1602 83.7891 37.4512 L 95.459 21.7285 C 96.9727 19.6289 96.0449 16.9922 93.6035 16.9922 L 83.252 16.9922 L 83.252 4.88281 L 137.598 4.88281 C 143.359 4.88281 146.436 2.24609 146.436 -3.95508 L 146.436 -32.9102 C 146.436 -39.1113 143.359 -41.748 137.598 -41.748 L 83.1543 -41.748 L 83.1543 -55.3223 L 137.598 -55.3223 C 143.359 -55.3223 146.436 -57.959 146.436 -64.1602 L 146.436 -93.1152 C 146.436 -99.3164 143.359 -101.953 137.598 -101.953 L 24.9023 -101.953 C 19.1406 -101.953 16.0645 -99.3164 16.0645 -93.1152 L 16.0645 -64.1602 C 16.0645 -57.959 19.1406 -55.3223 24.9023 -55.3223 L 79.3457 -55.3223 L 79.3457 -41.748 L 24.9023 -41.748 C 19.1406 -41.748 16.0645 -39.1113 16.0645 -32.9102 L 16.0645 -3.95508 C 16.0645 2.24609 19.1406 4.88281 24.9023 4.88281 Z M 25.1465 -59.1797 C 21.4355 -59.1797 19.9219 -60.6934 19.9219 -64.4043 L 19.9219 -92.8711 C 19.9219 -96.582 21.4355 -98.0957 25.1465 -98.0957 L 137.354 -98.0957 C 141.064 -98.0957 142.578 -96.582 142.578 -92.8711 L 142.578 -64.4043 C 142.578 -60.6934 141.064 -59.1797 137.354 -59.1797 Z M 25.1465 1.02539 C 21.4355 1.02539 19.9219 -0.439453 19.9219 -4.19922 L 19.9219 -32.666 C 19.9219 -36.377 21.4355 -37.8906 25.1465 -37.8906 L 137.354 -37.8906 C 141.064 -37.8906 142.578 -36.377 142.578 -32.666 L 142.578 -4.19922 C 142.578 -0.439453 141.064 1.02539 137.354 1.02539 Z"/>
  </g>
  <g id="Ultralight-L" transform="matrix(1 0 0 1 479.023 1556)">
   <path d="M 23.6816 -55.4199 L 137.744 -55.4199 C 142.627 -55.4199 145.312 -57.6172 145.312 -63.0371 L 145.312 -93.5059 C 145.312 -98.9258 142.627 -101.123 137.744 -101.123 L 23.6816 -101.123 C 18.75 -101.123 16.0645 -98.9258 16.0645 -93.5059 L 16.0645 -63.0371 C 16.0645 -57.6172 18.75 -55.4199 23.6816 -55.4199 Z M 23.7793 -58.0566 C 20.0684 -58.0566 18.7012 -59.4238 18.7012 -63.1348 L 18.7012 -93.457 C 18.7012 -97.1191 20.0684 -98.5352 23.7793 -98.5352 L 137.598 -98.5352 C 141.309 -98.5352 142.725 -97.1191 142.725 -93.457 L 142.725 -63.1348 C 142.725 -59.4238 141.309 -58.0566 137.598 -58.0566 Z M 79.3457 -41.0645 L 82.0312 -41.0645 L 82.0312 -55.2246 L 79.3457 -55.2246 Z M 23.6816 4.6875 L 79.2969 4.6875 L 79.2969 17.334 L 68.8477 17.334 C 66.8457 17.334 66.1133 19.5312 67.334 21.2891 L 78.3691 36.6211 C 79.5898 38.2324 81.8359 38.1348 83.0078 36.6211 L 94.043 21.2891 C 95.2637 19.5312 94.5312 17.334 92.5293 17.334 L 82.0801 17.334 L 82.0801 4.6875 L 137.744 4.6875 C 142.627 4.6875 145.312 2.49023 145.312 -2.92969 L 145.312 -33.4473 C 145.312 -38.8672 142.627 -41.0645 137.744 -41.0645 L 23.6816 -41.0645 C 18.75 -41.0645 16.0645 -38.8672 16.0645 -33.4473 L 16.0645 -2.92969 C 16.0645 2.49023 18.75 4.6875 23.6816 4.6875 Z M 23.7793 2.05078 C 20.0684 2.05078 18.7012 0.634766 18.7012 -3.02734 L 18.7012 -33.3496 C 18.7012 -37.0117 20.0684 -38.4277 23.7793 -38.4277 L 137.598 -38.4277 C 141.309 -38.4277 142.725 -37.0117 142.725 -33.3496 L 142.725 -3.02734 C 142.725 0.634766 141.309 2.05078 137.598 2.05078 Z"/>
  </g>
  <g id="Black-M" transform="matrix(1 0 0 1 2858.08 1126)">
   <path d="M 28.8574 2.39258 L 67.7734 2.39258 L 67.7734 8.93555 L 60.6445 8.93555 C 54.9316 8.93555 53.3203 13.4277 56.8359 17.4805 L 71.8262 35.0098 C 73.7305 37.3535 77.002 37.3047 78.9551 35.0098 L 93.8477 17.4805 C 97.2656 13.4766 95.7031 8.93555 90.2344 8.93555 L 82.8613 8.93555 L 82.8613 2.39258 L 121.777 2.39258 C 133.057 2.39258 138.184 -2.73438 138.184 -14.0137 L 138.184 -26.0254 C 138.184 -37.3535 133.057 -42.4805 121.777 -42.4805 L 82.8613 -42.4805 L 82.8613 -47.8027 L 121.777 -47.8027 C 133.057 -47.8027 138.184 -52.9297 138.184 -64.209 L 138.184 -76.2207 C 138.184 -87.5 133.057 -92.627 121.777 -92.627 L 28.8574 -92.627 C 17.5781 -92.627 12.4512 -87.5 12.4512 -76.2207 L 12.4512 -64.209 C 12.4512 -52.9297 17.5781 -47.8027 28.8574 -47.8027 L 67.7734 -47.8027 L 67.7734 -42.4805 L 28.8574 -42.4805 C 17.5781 -42.4805 12.4512 -37.3535 12.4512 -26.0254 L 12.4512 -14.0137 C 12.4512 -2.73438 17.5781 2.39258 28.8574 2.39258 Z M 28.7109 -61.6211 C 27.002 -61.6211 26.2695 -62.3535 26.2695 -64.0625 L 26.2695 -76.3672 C 26.2695 -78.0762 27.002 -78.8086 28.7109 -78.8086 L 121.924 -78.8086 C 123.633 -78.8086 124.365 -78.0762 124.365 -76.3672 L 124.365 -64.0625 C 124.365 -62.3535 123.633 -61.6211 121.924 -61.6211 Z M 28.7109 -11.4258 C 27.002 -11.4258 26.2695 -12.1582 26.2695 -13.8672 L 26.2695 -26.1719 C 26.2695 -27.9297 27.002 -28.6133 28.7109 -28.6133 L 121.924 -28.6133 C 123.633 -28.6133 124.365 -27.9297 124.365 -26.1719 L 124.365 -13.8672 C 124.365 -12.1582 123.633 -11.4258 121.924 -11.4258 Z"/>
  </g>
  <g id="Heavy-M" transform="matrix(1 0 0 1 2563.81 1126)">
   <path d="M 27.6367 1.02539 L 66.2598 1.02539 L 66.2598 7.8125 L 59.0332 7.8125 C 53.8086 7.8125 52.2949 12.0605 55.4688 15.8203 L 69.5801 32.4707 C 71.3867 34.668 74.4629 34.6191 76.3184 32.4707 L 90.332 15.8203 C 93.4082 12.1094 91.9434 7.8125 86.9141 7.8125 L 79.4922 7.8125 L 79.4922 1.02539 L 118.115 1.02539 C 128.467 1.02539 133.301 -3.71094 133.301 -14.1113 L 133.301 -27.3438 C 133.301 -37.7441 128.467 -42.5293 118.115 -42.5293 L 79.4922 -42.5293 L 79.4922 -48.4375 L 118.115 -48.4375 C 128.467 -48.4375 133.301 -53.1738 133.301 -63.5742 L 133.301 -76.8066 C 133.301 -87.207 128.467 -91.9922 118.115 -91.9922 L 27.6367 -91.9922 C 17.2363 -91.9922 12.4512 -87.207 12.4512 -76.8066 L 12.4512 -63.5742 C 12.4512 -53.1738 17.2363 -48.4375 27.6367 -48.4375 L 66.2598 -48.4375 L 66.2598 -42.5293 L 27.6367 -42.5293 C 17.2363 -42.5293 12.4512 -37.7441 12.4512 -27.3438 L 12.4512 -14.1113 C 12.4512 -3.71094 17.2363 1.02539 27.6367 1.02539 Z M 27.6855 -60.7422 C 25.6836 -60.7422 24.7559 -61.6211 24.7559 -63.6719 L 24.7559 -76.7578 C 24.7559 -78.7598 25.6836 -79.6875 27.6855 -79.6875 L 118.066 -79.6875 C 120.068 -79.6875 120.996 -78.7598 120.996 -76.7578 L 120.996 -63.6719 C 120.996 -61.6211 120.068 -60.7422 118.066 -60.7422 Z M 27.6855 -11.2793 C 25.6836 -11.2793 24.7559 -12.1582 24.7559 -14.209 L 24.7559 -27.2949 C 24.7559 -29.2969 25.6836 -30.2246 27.6855 -30.2246 L 118.066 -30.2246 C 120.068 -30.2246 120.996 -29.2969 120.996 -27.2949 L 120.996 -14.209 C 120.996 -12.1582 120.068 -11.2793 118.066 -11.2793 Z"/>
  </g>
  <g id="Bold-M" transform="matrix(1 0 0 1 2269.84 1126)">
   <path d="M 26.2695 -0.439453 L 64.5508 -0.439453 L 64.5508 6.49414 L 57.2266 6.49414 C 52.5879 6.49414 51.0742 10.498 53.9551 13.916 L 67.0898 29.5898 C 68.7988 31.6406 71.6309 31.5918 73.3398 29.5898 L 86.377 13.916 C 89.1602 10.5469 87.6953 6.49414 83.252 6.49414 L 75.7324 6.49414 L 75.7324 -0.439453 L 113.965 -0.439453 C 123.389 -0.439453 127.832 -4.83398 127.832 -14.2578 L 127.832 -28.8086 C 127.832 -38.1836 123.389 -42.5781 113.965 -42.5781 L 75.6836 -42.5781 L 75.6836 -49.1211 L 113.965 -49.1211 C 123.389 -49.1211 127.832 -53.5156 127.832 -62.8906 L 127.832 -77.4902 C 127.832 -86.8652 123.389 -91.2598 113.965 -91.2598 L 26.2695 -91.2598 C 16.8945 -91.2598 12.4512 -86.8652 12.4512 -77.4902 L 12.4512 -62.8906 C 12.4512 -53.5156 16.8945 -49.1211 26.2695 -49.1211 L 64.5996 -49.1211 L 64.5996 -42.5781 L 26.2695 -42.5781 C 16.8945 -42.5781 12.4512 -38.1836 12.4512 -28.8086 L 12.4512 -14.2578 C 12.4512 -4.83398 16.8945 -0.439453 26.2695 -0.439453 Z M 26.5137 -59.7168 C 24.2188 -59.7168 23.0469 -60.8398 23.0469 -63.1836 L 23.0469 -77.1484 C 23.0469 -79.541 24.2188 -80.6152 26.5137 -80.6152 L 113.77 -80.6152 C 116.064 -80.6152 117.188 -79.541 117.188 -77.1484 L 117.188 -63.1836 C 117.188 -60.8398 116.064 -59.7168 113.77 -59.7168 Z M 26.5137 -11.0352 C 24.2188 -11.0352 23.0469 -12.1582 23.0469 -14.5508 L 23.0469 -28.4668 C 23.0469 -30.8594 24.2188 -31.9824 26.5137 -31.9824 L 113.77 -31.9824 C 116.064 -31.9824 117.188 -30.8594 117.188 -28.4668 L 117.188 -14.5508 C 117.188 -12.1582 116.064 -11.0352 113.77 -11.0352 Z"/>
  </g>
  <g id="Semibold-M" transform="matrix(1 0 0 1 1975.03 1126)">
   <path d="M 25.3418 -1.46484 L 63.4277 -1.46484 L 63.4277 5.61523 L 55.957 5.61523 C 51.709 5.61523 50.2441 9.42383 52.8809 12.5977 L 65.332 27.5879 C 66.9922 29.541 69.6777 29.541 71.2891 27.5879 L 83.6914 12.5977 C 86.1816 9.47266 84.8145 5.61523 80.7129 5.61523 L 73.0957 5.61523 L 73.0957 -1.46484 L 111.133 -1.46484 C 119.824 -1.46484 124.023 -5.61523 124.023 -14.3066 L 124.023 -29.834 C 124.023 -38.5254 119.824 -42.627 111.133 -42.627 L 73.0957 -42.627 L 73.0957 -49.6094 L 111.133 -49.6094 C 119.824 -49.6094 124.023 -53.7109 124.023 -62.4023 L 124.023 -77.9297 C 124.023 -86.6211 119.824 -90.7227 111.133 -90.7227 L 25.3418 -90.7227 C 16.6504 -90.7227 12.4512 -86.6211 12.4512 -77.9297 L 12.4512 -62.4023 C 12.4512 -53.7109 16.6504 -49.6094 25.3418 -49.6094 L 63.4277 -49.6094 L 63.4277 -42.627 L 25.3418 -42.627 C 16.6504 -42.627 12.4512 -38.5254 12.4512 -29.834 L 12.4512 -14.3066 C 12.4512 -5.61523 16.6504 -1.46484 25.3418 -1.46484 Z M 25.6836 -59.0332 C 23.1934 -59.0332 21.875 -60.3027 21.875 -62.8906 L 21.875 -77.4414 C 21.875 -80.0781 23.1934 -81.2988 25.6836 -81.2988 L 110.791 -81.2988 C 113.33 -81.2988 114.6 -80.0781 114.6 -77.4414 L 114.6 -62.8906 C 114.6 -60.3027 113.33 -59.0332 110.791 -59.0332 Z M 25.6836 -10.9375 C 23.1934 -10.9375 21.875 -12.1582 21.875 -14.7949 L 21.875 -29.3457 C 21.875 -31.9336 23.1934 -33.2031 25.6836 -33.2031 L 110.791 -33.2031 C 113.33 -33.2031 114.6 -31.9336 114.6 -29.3457 L 114.6 -14.7949 C 114.6 -12.1582 113.33 -10.9375 110.791 -10.9375 Z"/>
  </g>
  <g id="Medium-M" transform="matrix(1 0 0 1 1679.73 1126)">
   <path d="M 24.6094 -2.29492 L 62.5488 -2.29492 L 62.5488 4.98047 L 54.9805 4.98047 C 51.0254 4.98047 49.6582 8.64258 52.0996 11.6211 L 64.0625 26.0742 C 65.625 27.9785 68.2129 27.9785 69.7754 26.0742 L 81.5918 11.6211 C 83.9844 8.69141 82.6172 4.98047 78.8086 4.98047 L 71.1426 4.98047 L 71.1426 -2.29492 L 108.984 -2.29492 C 117.188 -2.29492 121.191 -6.15234 121.191 -14.3555 L 121.191 -30.6152 C 121.191 -38.7207 117.188 -42.627 108.984 -42.627 L 71.0938 -42.627 L 71.0938 -49.9512 L 108.984 -49.9512 C 117.188 -49.9512 121.191 -53.8574 121.191 -62.0605 L 121.191 -78.2715 C 121.191 -86.4258 117.188 -90.332 108.984 -90.332 L 24.6094 -90.332 C 16.4551 -90.332 12.4512 -86.4258 12.4512 -78.2715 L 12.4512 -62.0605 C 12.4512 -53.8574 16.4551 -49.9512 24.6094 -49.9512 L 62.5488 -49.9512 L 62.5488 -42.627 L 24.6094 -42.627 C 16.4551 -42.627 12.4512 -38.7207 12.4512 -30.6152 L 12.4512 -14.3555 C 12.4512 -6.15234 16.4551 -2.29492 24.6094 -2.29492 Z M 25.0488 -58.4961 C 22.4121 -58.4961 20.9961 -59.8633 20.9961 -62.6465 L 20.9961 -77.6367 C 20.9961 -80.4688 22.4121 -81.7871 25.0488 -81.7871 L 108.545 -81.7871 C 111.23 -81.7871 112.646 -80.4688 112.646 -77.6367 L 112.646 -62.6465 C 112.646 -59.8633 111.23 -58.4961 108.545 -58.4961 Z M 25.0488 -10.791 C 22.4121 -10.791 20.9961 -12.1582 20.9961 -14.9414 L 20.9961 -29.9805 C 20.9961 -32.7637 22.4121 -34.1309 25.0488 -34.1309 L 108.545 -34.1309 C 111.23 -34.1309 112.646 -32.7637 112.646 -29.9805 L 112.646 -14.9414 C 112.646 -12.1582 111.23 -10.791 108.545 -10.791 Z"/>
  </g>
  <g id="Regular-M" transform="matrix(1 0 0 1 1384.9 1126)">
   <path d="M 23.6816 -3.32031 L 61.377 -3.32031 L 61.377 4.10156 L 53.7598 4.10156 C 50.1953 4.10156 48.8281 7.56836 51.0742 10.3027 L 62.3535 24.1211 C 63.8184 25.9277 66.2598 25.9277 67.7246 24.1211 L 78.9062 10.3027 C 81.0547 7.61719 79.7363 4.10156 76.2695 4.10156 L 68.5547 4.10156 L 68.5547 -3.32031 L 106.201 -3.32031 C 113.672 -3.32031 117.432 -6.93359 117.432 -14.4531 L 117.432 -31.5918 C 117.432 -39.0625 113.672 -42.6758 106.201 -42.6758 L 68.5547 -42.6758 L 68.5547 -50.4395 L 106.201 -50.4395 C 113.672 -50.4395 117.432 -54.1016 117.432 -61.5723 L 117.432 -78.7598 C 117.432 -86.2305 113.672 -89.8438 106.201 -89.8438 L 23.6816 -89.8438 C 16.2109 -89.8438 12.4512 -86.2305 12.4512 -78.7598 L 12.4512 -61.5723 C 12.4512 -54.1016 16.2109 -50.4395 23.6816 -50.4395 L 61.4258 -50.4395 L 61.4258 -42.6758 L 23.6816 -42.6758 C 16.2109 -42.6758 12.4512 -39.0625 12.4512 -31.5918 L 12.4512 -14.4531 C 12.4512 -6.93359 16.2109 -3.32031 23.6816 -3.32031 Z M 24.2676 -57.8125 C 21.3867 -57.8125 19.8242 -59.3262 19.8242 -62.3535 L 19.8242 -77.9297 C 19.8242 -81.0059 21.3867 -82.4707 24.2676 -82.4707 L 105.566 -82.4707 C 108.496 -82.4707 110.059 -81.0059 110.059 -77.9297 L 110.059 -62.3535 C 110.059 -59.3262 108.496 -57.8125 105.566 -57.8125 Z M 24.2676 -10.6445 C 21.3867 -10.6445 19.8242 -12.1582 19.8242 -15.1855 L 19.8242 -30.7617 C 19.8242 -33.8379 21.3867 -35.3027 24.2676 -35.3027 L 105.566 -35.3027 C 108.496 -35.3027 110.059 -33.8379 110.059 -30.7617 L 110.059 -15.1855 C 110.059 -12.1582 108.496 -10.6445 105.566 -10.6445 Z"/>
  </g>
  <g id="Light-M" transform="matrix(1 0 0 1 1088.92 1126)">
   <path d="M 22.0215 -3.61328 L 61.4258 -3.61328 L 61.4258 4.54102 L 53.6133 4.54102 C 50.6836 4.54102 49.5605 7.4707 51.416 9.76562 L 61.8652 22.998 C 63.1836 24.6094 65.3809 24.6094 66.6992 22.998 L 77.0508 9.76562 C 78.8086 7.51953 77.7344 4.54102 74.8535 4.54102 L 67.041 4.54102 L 67.041 -3.61328 L 106.348 -3.61328 C 112.695 -3.61328 115.967 -6.64062 115.967 -13.1348 L 115.967 -32.2754 C 115.967 -38.7207 112.695 -41.748 106.348 -41.748 L 66.9922 -41.748 L 66.9922 -50.5859 L 106.348 -50.5859 C 112.695 -50.5859 115.967 -53.6133 115.967 -60.1074 L 115.967 -79.248 C 115.967 -85.6934 112.695 -88.7207 106.348 -88.7207 L 22.0215 -88.7207 C 15.6738 -88.7207 12.4512 -85.6934 12.4512 -79.248 L 12.4512 -60.1074 C 12.4512 -53.6133 15.6738 -50.5859 22.0215 -50.5859 L 61.4258 -50.5859 L 61.4258 -41.748 L 22.0215 -41.748 C 15.6738 -41.748 12.4512 -38.7207 12.4512 -32.2754 L 12.4512 -13.1348 C 12.4512 -6.64062 15.6738 -3.61328 22.0215 -3.61328 Z M 22.4609 -56.2988 C 19.5801 -56.2988 18.1641 -57.666 18.1641 -60.6445 L 18.1641 -78.6621 C 18.1641 -81.6895 19.5801 -83.0078 22.4609 -83.0078 L 105.908 -83.0078 C 108.838 -83.0078 110.205 -81.6895 110.205 -78.6621 L 110.205 -60.6445 C 110.205 -57.666 108.838 -56.2988 105.908 -56.2988 Z M 22.4609 -9.32617 C 19.5801 -9.32617 18.1641 -10.6934 18.1641 -13.6719 L 18.1641 -31.6895 C 18.1641 -34.7168 19.5801 -36.0352 22.4609 -36.0352 L 105.908 -36.0352 C 108.838 -36.0352 110.205 -34.7168 110.205 -31.6895 L 110.205 -13.6719 C 110.205 -10.6934 108.838 -9.32617 105.908 -9.32617 Z"/>
  </g>
  <g id="Thin-M" transform="matrix(1 0 0 1 793.214 1126)">
   <path d="M 19.8242 -4.00391 L 61.4258 -4.00391 L 61.4258 5.12695 L 53.4668 5.12695 C 51.3672 5.12695 50.5859 7.32422 51.8555 9.08203 L 61.1816 21.4844 C 62.3047 22.9004 64.209 22.8516 65.2832 21.4844 L 74.5605 9.08203 C 75.8789 7.32422 75.0977 5.12695 72.998 5.12695 L 64.9902 5.12695 L 64.9902 -4.00391 L 106.592 -4.00391 C 111.426 -4.00391 113.965 -6.25 113.965 -11.377 L 113.965 -33.2031 C 113.965 -38.3301 111.426 -40.5762 106.592 -40.5762 L 64.9414 -40.5762 L 64.9414 -50.7812 L 106.592 -50.7812 C 111.426 -50.7812 113.965 -52.9785 113.965 -58.1055 L 113.965 -79.9316 C 113.965 -85.0586 111.426 -87.3047 106.592 -87.3047 L 19.8242 -87.3047 C 14.9902 -87.3047 12.4512 -85.0586 12.4512 -79.9316 L 12.4512 -58.1055 C 12.4512 -52.9785 14.9902 -50.7812 19.8242 -50.7812 L 61.4746 -50.7812 L 61.4746 -40.5762 L 19.8242 -40.5762 C 14.9902 -40.5762 12.4512 -38.3301 12.4512 -33.2031 L 12.4512 -11.377 C 12.4512 -6.25 14.9902 -4.00391 19.8242 -4.00391 Z M 20.0684 -54.2969 C 17.1875 -54.2969 15.9668 -55.4688 15.9668 -58.3984 L 15.9668 -79.6875 C 15.9668 -82.5684 17.1875 -83.7891 20.0684 -83.7891 L 106.348 -83.7891 C 109.229 -83.7891 110.449 -82.5684 110.449 -79.6875 L 110.449 -58.3984 C 110.449 -55.4688 109.229 -54.2969 106.348 -54.2969 Z M 20.0684 -7.56836 C 17.1875 -7.56836 15.9668 -8.74023 15.9668 -11.6699 L 15.9668 -32.959 C 15.9668 -35.8398 17.1875 -37.0605 20.0684 -37.0605 L 106.348 -37.0605 C 109.229 -37.0605 110.449 -35.8398 110.449 -32.959 L 110.449 -11.6699 C 110.449 -8.74023 109.229 -7.56836 106.348 -7.56836 Z"/>
  </g>
  <g id="Ultralight-M" transform="matrix(1 0 0 1 497.016 1126)">
   <path d="M 18.7012 -4.24805 L 61.4258 -4.24805 L 61.4258 5.41992 L 53.3691 5.41992 C 51.6602 5.41992 51.0742 7.22656 52.0996 8.69141 L 60.8398 20.7031 C 61.8164 22.0215 63.623 21.9238 64.5508 20.7031 L 73.291 8.69141 C 74.3164 7.22656 73.7305 5.41992 72.0215 5.41992 L 63.9648 5.41992 L 63.9648 -4.24805 L 106.689 -4.24805 C 110.742 -4.24805 112.939 -6.05469 112.939 -10.498 L 112.939 -33.6914 C 112.939 -38.0859 110.742 -39.9414 106.689 -39.9414 L 63.916 -39.9414 L 63.916 -50.8301 L 106.689 -50.8301 C 110.742 -50.8301 112.939 -52.6855 112.939 -57.1289 L 112.939 -80.2734 C 112.939 -84.7168 110.742 -86.5723 106.689 -86.5723 L 18.7012 -86.5723 C 14.6484 -86.5723 12.4512 -84.7168 12.4512 -80.2734 L 12.4512 -57.1289 C 12.4512 -52.6855 14.6484 -50.8301 18.7012 -50.8301 L 61.5234 -50.8301 L 61.5234 -39.9414 L 18.7012 -39.9414 C 14.6484 -39.9414 12.4512 -38.0859 12.4512 -33.6914 L 12.4512 -10.498 C 12.4512 -6.05469 14.6484 -4.24805 18.7012 -4.24805 Z M 18.8477 -53.2715 C 15.9668 -53.2715 14.8438 -54.3457 14.8438 -57.2266 L 14.8438 -80.1758 C 14.8438 -83.0566 15.9668 -84.1309 18.8477 -84.1309 L 106.592 -84.1309 C 109.424 -84.1309 110.547 -83.0566 110.547 -80.1758 L 110.547 -57.2266 C 110.547 -54.3457 109.424 -53.2715 106.592 -53.2715 Z M 18.8477 -6.64062 C 15.9668 -6.64062 14.8438 -7.76367 14.8438 -10.6445 L 14.8438 -33.5449 C 14.8438 -36.4258 15.9668 -37.5488 18.8477 -37.5488 L 106.592 -37.5488 C 109.424 -37.5488 110.547 -36.4258 110.547 -33.5449 L 110.547 -10.6445 C 110.547 -7.76367 109.424 -6.64062 106.592 -6.64062 Z"/>
  </g>
  <g id="Black-S" transform="matrix(1 0 0 1 2874.56 696)">
   <path d="M 22.5586 -5.85938 L 52.9785 -5.85938 L 52.9785 -0.732422 L 47.4121 -0.732422 C 42.9688 -0.732422 41.6992 2.7832 44.4336 5.95703 L 56.1035 19.6289 C 57.6172 21.4355 60.1562 21.3867 61.6699 19.6289 L 73.291 5.95703 C 75.9277 2.83203 74.707 -0.732422 70.459 -0.732422 L 64.6973 -0.732422 L 64.6973 -5.85938 L 95.1172 -5.85938 C 103.906 -5.85938 107.91 -9.86328 107.91 -18.6523 L 107.91 -28.125 C 107.91 -36.9141 103.906 -40.918 95.1172 -40.918 L 64.6973 -40.918 L 64.6973 -45.1172 L 95.1172 -45.1172 C 103.906 -45.1172 107.91 -49.1211 107.91 -57.9102 L 107.91 -67.3828 C 107.91 -76.1719 103.906 -80.1758 95.1172 -80.1758 L 22.5586 -80.1758 C 13.7695 -80.1758 9.76562 -76.1719 9.76562 -67.3828 L 9.76562 -57.9102 C 9.76562 -49.1211 13.7695 -45.1172 22.5586 -45.1172 L 52.9785 -45.1172 L 52.9785 -40.918 L 22.5586 -40.918 C 13.7695 -40.918 9.76562 -36.9141 9.76562 -28.125 L 9.76562 -18.6523 C 9.76562 -9.86328 13.7695 -5.85938 22.5586 -5.85938 Z M 22.4609 -55.8594 C 21.0938 -55.8594 20.5078 -56.4453 20.5078 -57.8125 L 20.5078 -67.4805 C 20.5078 -68.8477 21.0938 -69.4336 22.4609 -69.4336 L 95.2148 -69.4336 C 96.582 -69.4336 97.168 -68.8477 97.168 -67.4805 L 97.168 -57.8125 C 97.168 -56.4453 96.582 -55.8594 95.2148 -55.8594 Z M 22.4609 -16.6016 C 21.0938 -16.6016 20.5078 -17.1875 20.5078 -18.5547 L 20.5078 -28.2227 C 20.5078 -29.5898 21.0938 -30.1758 22.4609 -30.1758 L 95.2148 -30.1758 C 96.582 -30.1758 97.168 -29.5898 97.168 -28.2227 L 97.168 -18.5547 C 97.168 -17.1875 96.582 -16.6016 95.2148 -16.6016 Z"/>
  </g>
  <g id="Heavy-S" transform="matrix(1 0 0 1 2579.63 696)">
   <path d="M 21.8262 -6.83594 L 51.8066 -6.83594 L 51.8066 -1.66016 L 46.1914 -1.66016 C 42.041 -1.66016 40.8203 1.75781 43.3594 4.73633 L 54.4434 17.7734 C 55.9082 19.5312 58.3008 19.4824 59.7656 17.7734 L 70.8008 4.73633 C 73.2422 1.80664 72.0703 -1.66016 68.1152 -1.66016 L 62.2559 -1.66016 L 62.2559 -6.83594 L 92.2852 -6.83594 C 100.537 -6.83594 104.346 -10.6445 104.346 -18.8477 L 104.346 -29.0527 C 104.346 -37.2559 100.537 -41.0645 92.2852 -41.0645 L 62.2559 -41.0645 L 62.2559 -45.6055 L 92.2852 -45.6055 C 100.537 -45.6055 104.346 -49.3652 104.346 -57.6172 L 104.346 -67.7734 C 104.346 -75.9766 100.537 -79.7852 92.2852 -79.7852 L 21.8262 -79.7852 C 13.5742 -79.7852 9.76562 -75.9766 9.76562 -67.7734 L 9.76562 -57.6172 C 9.76562 -49.3652 13.5742 -45.6055 21.8262 -45.6055 L 51.8066 -45.6055 L 51.8066 -41.0645 L 21.8262 -41.0645 C 13.5742 -41.0645 9.76562 -37.2559 9.76562 -29.0527 L 9.76562 -18.8477 C 9.76562 -10.6445 13.5742 -6.83594 21.8262 -6.83594 Z M 21.875 -55.3223 C 20.2637 -55.3223 19.5312 -56.1035 19.5312 -57.7148 L 19.5312 -67.6758 C 19.5312 -69.2871 20.2637 -70.0195 21.875 -70.0195 L 92.2363 -70.0195 C 93.7988 -70.0195 94.5801 -69.2871 94.5801 -67.6758 L 94.5801 -57.7148 C 94.5801 -56.1035 93.7988 -55.3223 92.2363 -55.3223 Z M 21.875 -16.6016 C 20.2637 -16.6016 19.5312 -17.334 19.5312 -18.9453 L 19.5312 -28.9551 C 19.5312 -30.5664 20.2637 -31.2988 21.875 -31.2988 L 92.2363 -31.2988 C 93.7988 -31.2988 94.5801 -30.5664 94.5801 -28.9551 L 94.5801 -18.9453 C 94.5801 -17.334 93.7988 -16.6016 92.2363 -16.6016 Z"/>
  </g>
  <g id="Bold-S" transform="matrix(1 0 0 1 2284.92 696)">
   <path d="M 20.9473 -7.95898 L 50.5371 -7.95898 L 50.5371 -2.68555 L 44.7754 -2.68555 C 41.0156 -2.68555 39.7949 0.585938 42.1387 3.32031 L 52.5879 15.7227 C 53.9551 17.3828 56.25 17.334 57.6172 15.7227 L 68.0176 3.32031 C 70.2637 0.634766 69.0918 -2.68555 65.4785 -2.68555 L 59.5703 -2.68555 L 59.5703 -7.95898 L 89.1113 -7.95898 C 96.7285 -7.95898 100.342 -11.5234 100.342 -19.0918 L 100.342 -30.0781 C 100.342 -37.6465 96.7285 -41.2109 89.1113 -41.2109 L 59.5703 -41.2109 L 59.5703 -46.0938 L 89.1113 -46.0938 C 96.7285 -46.0938 100.342 -49.6582 100.342 -57.2754 L 100.342 -68.2129 C 100.342 -75.7812 96.7285 -79.3457 89.1113 -79.3457 L 20.9473 -79.3457 C 13.3789 -79.3457 9.76562 -75.7812 9.76562 -68.2129 L 9.76562 -57.2754 C 9.76562 -49.6582 13.3789 -46.0938 20.9473 -46.0938 L 50.5371 -46.0938 L 50.5371 -41.2109 L 20.9473 -41.2109 C 13.3789 -41.2109 9.76562 -37.6465 9.76562 -30.0781 L 9.76562 -19.0918 C 9.76562 -11.5234 13.3789 -7.95898 20.9473 -7.95898 Z M 21.1914 -54.7852 C 19.3848 -54.7852 18.4082 -55.6641 18.4082 -57.5684 L 18.4082 -67.9199 C 18.4082 -69.8242 19.3848 -70.7031 21.1914 -70.7031 L 88.916 -70.7031 C 90.7227 -70.7031 91.6504 -69.8242 91.6504 -67.9199 L 91.6504 -57.5684 C 91.6504 -55.6641 90.7227 -54.7852 88.916 -54.7852 Z M 21.1914 -16.6016 C 19.3848 -16.6016 18.4082 -17.5293 18.4082 -19.4336 L 18.4082 -29.7363 C 18.4082 -31.6406 19.3848 -32.5684 21.1914 -32.5684 L 88.916 -32.5684 C 90.7227 -32.5684 91.6504 -31.6406 91.6504 -29.7363 L 91.6504 -19.4336 C 91.6504 -17.5293 90.7227 -16.6016 88.916 -16.6016 Z"/>
  </g>
  <g id="Semibold-S" transform="matrix(1 0 0 1 1989.6 696)">
   <path d="M 20.3613 -8.74023 L 49.6582 -8.74023 L 49.6582 -3.36914 L 43.8477 -3.36914 C 40.332 -3.36914 39.1113 -0.244141 41.3086 2.39258 L 51.3184 14.3066 C 52.6367 15.918 54.834 15.8691 56.1523 14.3066 L 66.1133 2.39258 C 68.2129 -0.195312 67.041 -3.36914 63.6719 -3.36914 L 57.7148 -3.36914 L 57.7148 -8.74023 L 86.9629 -8.74023 C 94.0918 -8.74023 97.5586 -12.1094 97.5586 -19.2871 L 97.5586 -30.8105 C 97.5586 -37.8906 94.0918 -41.3086 86.9629 -41.3086 L 57.7148 -41.3086 L 57.7148 -46.4844 L 86.9629 -46.4844 C 94.0918 -46.4844 97.5586 -49.8535 97.5586 -57.0312 L 97.5586 -68.5547 C 97.5586 -75.6348 94.0918 -79.0527 86.9629 -79.0527 L 20.3613 -79.0527 C 13.2324 -79.0527 9.76562 -75.6348 9.76562 -68.5547 L 9.76562 -57.0312 C 9.76562 -49.8535 13.2324 -46.4844 20.3613 -46.4844 L 49.6582 -46.4844 L 49.6582 -41.3086 L 20.3613 -41.3086 C 13.2324 -41.3086 9.76562 -37.8906 9.76562 -30.8105 L 9.76562 -19.2871 C 9.76562 -12.1094 13.2324 -8.74023 20.3613 -8.74023 Z M 20.7031 -54.3457 C 18.75 -54.3457 17.6758 -55.4199 17.6758 -57.4707 L 17.6758 -68.0664 C 17.6758 -70.166 18.75 -71.1426 20.7031 -71.1426 L 86.5723 -71.1426 C 88.5742 -71.1426 89.6484 -70.166 89.6484 -68.0664 L 89.6484 -57.4707 C 89.6484 -55.4199 88.5742 -54.3457 86.5723 -54.3457 Z M 20.7031 -16.6504 C 18.75 -16.6504 17.6758 -17.6758 17.6758 -19.7266 L 17.6758 -30.3223 C 17.6758 -32.4219 18.75 -33.3984 20.7031 -33.3984 L 86.5723 -33.3984 C 88.5742 -33.3984 89.6484 -32.4219 89.6484 -30.3223 L 89.6484 -19.7266 C 89.6484 -17.6758 88.5742 -16.6504 86.5723 -16.6504 Z"/>
  </g>
  <g id="Medium-S" transform="matrix(1 0 0 1 1693.94 696)">
   <path d="M 19.9219 -9.32617 L 48.9746 -9.32617 L 48.9746 -3.90625 L 43.1152 -3.90625 C 39.7949 -3.90625 38.5742 -0.830078 40.6738 1.66016 L 50.3418 13.2324 C 51.6602 14.7949 53.7598 14.7949 55.0293 13.2324 L 64.6484 1.66016 C 66.6504 -0.78125 65.4785 -3.90625 62.2559 -3.90625 L 56.2988 -3.90625 L 56.2988 -9.32617 L 85.3027 -9.32617 C 92.1387 -9.32617 95.459 -12.5977 95.459 -19.3848 L 95.459 -31.3477 C 95.459 -38.1348 92.1387 -41.4062 85.3027 -41.4062 L 56.2988 -41.4062 L 56.2988 -46.7285 L 85.3027 -46.7285 C 92.1387 -46.7285 95.459 -50 95.459 -56.8359 L 95.459 -68.75 C 95.459 -75.5371 92.1387 -78.8574 85.3027 -78.8574 L 19.9219 -78.8574 C 13.0859 -78.8574 9.76562 -75.5371 9.76562 -68.75 L 9.76562 -56.8359 C 9.76562 -50 13.0859 -46.7285 19.9219 -46.7285 L 48.9746 -46.7285 L 48.9746 -41.4062 L 19.9219 -41.4062 C 13.0859 -41.4062 9.76562 -38.1348 9.76562 -31.3477 L 9.76562 -19.3848 C 9.76562 -12.5977 13.0859 -9.32617 19.9219 -9.32617 Z M 20.3613 -54.0527 C 18.2617 -54.0527 17.0898 -55.1758 17.0898 -57.373 L 17.0898 -68.1641 C 17.0898 -70.4102 18.2617 -71.4844 20.3613 -71.4844 L 84.8633 -71.4844 C 86.9629 -71.4844 88.1348 -70.4102 88.1348 -68.1641 L 88.1348 -57.373 C 88.1348 -55.1758 86.9629 -54.0527 84.8633 -54.0527 Z M 20.3613 -16.6504 C 18.2617 -16.6504 17.0898 -17.7734 17.0898 -19.9707 L 17.0898 -30.7617 C 17.0898 -32.959 18.2617 -34.082 20.3613 -34.082 L 84.8633 -34.082 C 86.9629 -34.082 88.1348 -32.959 88.1348 -30.7617 L 88.1348 -19.9707 C 88.1348 -17.7734 86.9629 -16.6504 84.8633 -16.6504 Z"/>
  </g>
  <g id="Regular-S" transform="matrix(1 0 0 1 1398.6 696)">
   <path d="M 19.3848 -10.0586 L 48.0957 -10.0586 L 48.0957 -4.63867 L 42.1875 -4.63867 C 39.1113 -4.63867 37.8906 -1.61133 39.8438 0.683594 L 49.0723 11.8164 C 50.3418 13.3301 52.3438 13.3301 53.6133 11.8164 L 62.7441 0.683594 C 64.5996 -1.5625 63.4766 -4.63867 60.4492 -4.63867 L 54.4434 -4.63867 L 54.4434 -10.0586 L 83.1543 -10.0586 C 89.5508 -10.0586 92.7246 -13.1836 92.7246 -19.5801 L 92.7246 -32.0312 C 92.7246 -38.3789 89.5508 -41.5039 83.1543 -41.5039 L 54.4434 -41.5039 L 54.4434 -47.0703 L 83.1543 -47.0703 C 89.5508 -47.0703 92.7246 -50.2441 92.7246 -56.5918 L 92.7246 -69.0918 C 92.7246 -75.3906 89.5508 -78.5645 83.1543 -78.5645 L 19.3848 -78.5645 C 12.9395 -78.5645 9.76562 -75.3906 9.76562 -69.0918 L 9.76562 -56.5918 C 9.76562 -50.2441 12.9395 -47.0703 19.3848 -47.0703 L 48.0957 -47.0703 L 48.0957 -41.5039 L 19.3848 -41.5039 C 12.9395 -41.5039 9.76562 -38.3789 9.76562 -32.0312 L 9.76562 -19.5801 C 9.76562 -13.1836 12.9395 -10.0586 19.3848 -10.0586 Z M 19.873 -53.6621 C 17.627 -53.6621 16.3574 -54.9316 16.3574 -57.3242 L 16.3574 -68.3105 C 16.3574 -70.752 17.627 -71.9727 19.873 -71.9727 L 82.5684 -71.9727 C 84.8633 -71.9727 86.1816 -70.752 86.1816 -68.3105 L 86.1816 -57.3242 C 86.1816 -54.9316 84.8633 -53.6621 82.5684 -53.6621 Z M 19.873 -16.6504 C 17.627 -16.6504 16.3574 -17.8711 16.3574 -20.2637 L 16.3574 -31.2988 C 16.3574 -33.7402 17.627 -34.9121 19.873 -34.9121 L 82.5684 -34.9121 C 84.8633 -34.9121 86.1816 -33.7402 86.1816 -31.2988 L 86.1816 -20.2637 C 86.1816 -17.8711 84.8633 -16.6504 82.5684 -16.6504 Z"/>
  </g>
  <g id="Light-S" transform="matrix(1 0 0 1 1102.55 696)">
   <path d="M 17.9199 -10.3516 L 48.0957 -10.3516 L 48.0957 -4.24805 L 42.0898 -4.24805 C 39.5508 -4.24805 38.5742 -1.70898 40.1367 0.244141 L 48.6328 10.8398 C 49.7559 12.1582 51.5625 12.1582 52.6367 10.8398 L 61.084 0.244141 C 62.5977 -1.70898 61.6699 -4.24805 59.2285 -4.24805 L 53.125 -4.24805 L 53.125 -10.3516 L 83.3008 -10.3516 C 88.6719 -10.3516 91.4062 -12.9395 91.4062 -18.4082 L 91.4062 -32.666 C 91.4062 -38.0859 88.6719 -40.7227 83.3008 -40.7227 L 53.0762 -40.7227 L 53.0762 -47.2168 L 83.3008 -47.2168 C 88.6719 -47.2168 91.4062 -49.8047 91.4062 -55.2734 L 91.4062 -69.5312 C 91.4062 -74.9512 88.6719 -77.5879 83.3008 -77.5879 L 17.9199 -77.5879 C 12.5 -77.5879 9.76562 -74.9512 9.76562 -69.5312 L 9.76562 -55.2734 C 9.76562 -49.8047 12.5 -47.2168 17.9199 -47.2168 L 48.1445 -47.2168 L 48.1445 -40.7227 L 17.9199 -40.7227 C 12.5 -40.7227 9.76562 -38.0859 9.76562 -32.666 L 9.76562 -18.4082 C 9.76562 -12.9395 12.5 -10.3516 17.9199 -10.3516 Z M 18.3105 -52.3438 C 16.0645 -52.3438 14.8926 -53.4668 14.8926 -55.8105 L 14.8926 -68.9941 C 14.8926 -71.3379 16.0645 -72.4609 18.3105 -72.4609 L 82.8613 -72.4609 C 85.1562 -72.4609 86.3281 -71.3379 86.3281 -68.9941 L 86.3281 -55.8105 C 86.3281 -53.4668 85.1562 -52.3438 82.8613 -52.3438 Z M 18.3105 -15.4297 C 16.0645 -15.4297 14.8926 -16.6016 14.8926 -18.9453 L 14.8926 -32.1289 C 14.8926 -34.4727 16.0645 -35.5957 18.3105 -35.5957 L 82.8613 -35.5957 C 85.1562 -35.5957 86.3281 -34.4727 86.3281 -32.1289 L 86.3281 -18.9453 C 86.3281 -16.6016 85.1562 -15.4297 82.8613 -15.4297 Z"/>
  </g>
  <g id="Thin-S" transform="matrix(1 0 0 1 806.691 696)">
   <path d="M 15.9668 -10.6934 L 48.1445 -10.6934 L 48.1445 -3.75977 L 41.9434 -3.75977 C 40.0879 -3.75977 39.4531 -1.85547 40.5762 -0.390625 L 48.0957 9.47266 C 48.9746 10.6445 50.5371 10.5957 51.416 9.47266 L 58.8867 -0.390625 C 60.0098 -1.85547 59.3262 -3.75977 57.5684 -3.75977 L 51.3184 -3.75977 L 51.3184 -10.6934 L 83.4473 -10.6934 C 87.5488 -10.6934 89.6973 -12.5977 89.6973 -16.8945 L 89.6973 -33.4473 C 89.6973 -37.7441 87.5488 -39.6484 83.4473 -39.6484 L 51.2695 -39.6484 L 51.2695 -47.3633 L 83.4473 -47.3633 C 87.5488 -47.3633 89.6973 -49.2676 89.6973 -53.5645 L 89.6973 -70.1172 C 89.6973 -74.4141 87.5488 -76.3184 83.4473 -76.3184 L 15.9668 -76.3184 C 11.9141 -76.3184 9.76562 -74.4141 9.76562 -70.1172 L 9.76562 -53.5645 C 9.76562 -49.2676 11.9141 -47.3633 15.9668 -47.3633 L 48.1445 -47.3633 L 48.1445 -39.6484 L 15.9668 -39.6484 C 11.9141 -39.6484 9.76562 -37.7441 9.76562 -33.4473 L 9.76562 -16.8945 C 9.76562 -12.5977 11.9141 -10.6934 15.9668 -10.6934 Z M 16.1621 -50.5371 C 13.916 -50.5371 12.9395 -51.5137 12.9395 -53.8086 L 12.9395 -69.873 C 12.9395 -72.168 13.916 -73.0957 16.1621 -73.0957 L 83.252 -73.0957 C 85.498 -73.0957 86.4746 -72.168 86.4746 -69.873 L 86.4746 -53.8086 C 86.4746 -51.5137 85.498 -50.5371 83.252 -50.5371 Z M 16.1621 -13.8672 C 13.916 -13.8672 12.9395 -14.8438 12.9395 -17.1387 L 12.9395 -33.2031 C 12.9395 -35.498 13.916 -36.4746 16.1621 -36.4746 L 83.252 -36.4746 C 85.498 -36.4746 86.4746 -35.498 86.4746 -33.2031 L 86.4746 -17.1387 C 86.4746 -14.8438 85.498 -13.8672 83.252 -13.8672 Z"/>
  </g>
  <g id="Ultralight-S" transform="matrix(1 0 0 1 510.444 696)">
   <path d="M 14.9902 -10.8887 L 48.1445 -10.8887 L 48.1445 -3.4668 L 41.8457 -3.4668 C 40.4297 -3.4668 39.8926 -1.95312 40.7715 -0.732422 L 47.7539 8.78906 C 48.584 9.86328 50 9.81445 50.7812 8.78906 L 57.7637 -0.732422 C 58.6426 -1.95312 58.1543 -3.4668 56.6895 -3.4668 L 50.3906 -3.4668 L 50.3906 -10.8887 L 83.5938 -10.8887 C 86.9629 -10.8887 88.7695 -12.4512 88.7695 -16.1133 L 88.7695 -33.8867 C 88.7695 -37.5488 86.9629 -39.1113 83.5938 -39.1113 L 50.3418 -39.1113 L 50.3418 -47.4609 L 83.5938 -47.4609 C 86.9629 -47.4609 88.7695 -48.9746 88.7695 -52.6367 L 88.7695 -70.459 C 88.7695 -74.0723 86.9629 -75.6348 83.5938 -75.6348 L 14.9902 -75.6348 C 11.5723 -75.6348 9.76562 -74.0723 9.76562 -70.459 L 9.76562 -52.6367 C 9.76562 -48.9746 11.5723 -47.4609 14.9902 -47.4609 L 48.1934 -47.4609 L 48.1934 -39.1113 L 14.9902 -39.1113 C 11.5723 -39.1113 9.76562 -37.5488 9.76562 -33.8867 L 9.76562 -16.1133 C 9.76562 -12.4512 11.5723 -10.8887 14.9902 -10.8887 Z M 15.0879 -49.6094 C 12.8418 -49.6094 11.9629 -50.5371 11.9629 -52.7832 L 11.9629 -70.3125 C 11.9629 -72.5586 12.8418 -73.4375 15.0879 -73.4375 L 83.4473 -73.4375 C 85.6934 -73.4375 86.6211 -72.5586 86.6211 -70.3125 L 86.6211 -52.7832 C 86.6211 -50.5371 85.6934 -49.6094 83.4473 -49.6094 Z M 15.0879 -13.0859 C 12.8418 -13.0859 11.9629 -13.9648 11.9629 -16.2109 L 11.9629 -33.7402 C 11.9629 -36.0352 12.8418 -36.9141 15.0879 -36.9141 L 83.4473 -36.9141 C 85.6934 -36.9141 86.6211 -36.0352 86.6211 -33.7402 L 86.6211 -16.2109 C 86.6211 -13.9648 85.6934 -13.0859 83.4473 -13.0859 Z"/>
  </g>
 </g>
</svg>
